<mxfile host="Electron" modified="2024-01-02T07:04:52.873Z" agent="Mozilla/5.0 (Windows NT 10.0; Win64; x64) AppleWebKit/537.36 (KHTML, like Gecko) draw.io/22.1.2 Chrome/114.0.5735.289 Electron/25.9.4 Safari/537.36" etag="ZBmRuUR5A9fZVWOVLYKH" version="22.1.2" type="device">
  <diagram name="Seite-1" id="_KZq46WEIiSFuVHRx1rl">
    <mxGraphModel dx="1418" dy="796" grid="1" gridSize="10" guides="1" tooltips="1" connect="1" arrows="1" fold="1" page="1" pageScale="1" pageWidth="827" pageHeight="1169" math="1" shadow="0">
      <root>
        <mxCell id="0" />
        <mxCell id="1" parent="0" />
        <mxCell id="a2_H5RpbEo5zHHFtTsIT-2" value="&lt;h1&gt;Zweipunkt Wechselrichter&lt;/h1&gt;&lt;p&gt;1) Spannung der HalbbrückenU_a0&lt;/p&gt;&lt;p&gt;2) Strangspannung U_AN&lt;/p&gt;&lt;p&gt;3) Verkettete Spannung&lt;/p&gt;&lt;p&gt;&lt;br&gt;&lt;/p&gt;" style="text;html=1;strokeColor=none;fillColor=none;spacing=5;spacingTop=-20;whiteSpace=wrap;overflow=hidden;rounded=0;" parent="1" vertex="1">
          <mxGeometry x="40" y="40" width="240" height="160" as="geometry" />
        </mxCell>
        <mxCell id="a2_H5RpbEo5zHHFtTsIT-3" value="&lt;h1&gt;Dreipunkt Wechselrichter&lt;/h1&gt;&lt;p style=&quot;border-color: var(--border-color);&quot;&gt;1) Spannung der HalbbrückenU_a0&lt;/p&gt;&lt;p style=&quot;border-color: var(--border-color);&quot;&gt;2) Strangspannung U_AN&lt;/p&gt;&lt;p style=&quot;border-color: var(--border-color);&quot;&gt;3) Verkettete Spannung&lt;/p&gt;&lt;p style=&quot;border-color: var(--border-color);&quot;&gt;&lt;br style=&quot;border-color: var(--border-color);&quot;&gt;&lt;/p&gt;" style="text;html=1;strokeColor=none;fillColor=none;spacing=5;spacingTop=-20;whiteSpace=wrap;overflow=hidden;rounded=0;" parent="1" vertex="1">
          <mxGeometry x="480" y="40" width="240" height="160" as="geometry" />
        </mxCell>
        <mxCell id="a2_H5RpbEo5zHHFtTsIT-4" value="" style="endArrow=classic;html=1;rounded=0;" parent="1" edge="1">
          <mxGeometry width="50" height="50" relative="1" as="geometry">
            <mxPoint x="80" y="400" as="sourcePoint" />
            <mxPoint x="80" y="240" as="targetPoint" />
          </mxGeometry>
        </mxCell>
        <mxCell id="a2_H5RpbEo5zHHFtTsIT-5" value="" style="endArrow=classic;html=1;rounded=0;" parent="1" edge="1">
          <mxGeometry width="50" height="50" relative="1" as="geometry">
            <mxPoint x="60" y="320" as="sourcePoint" />
            <mxPoint x="360" y="320" as="targetPoint" />
          </mxGeometry>
        </mxCell>
        <mxCell id="a2_H5RpbEo5zHHFtTsIT-6" value="" style="endArrow=none;html=1;rounded=0;" parent="1" edge="1">
          <mxGeometry width="50" height="50" relative="1" as="geometry">
            <mxPoint x="70" y="260" as="sourcePoint" />
            <mxPoint x="90" y="260" as="targetPoint" />
          </mxGeometry>
        </mxCell>
        <mxCell id="a2_H5RpbEo5zHHFtTsIT-8" value="" style="endArrow=none;html=1;rounded=0;fillColor=#f8cecc;strokeColor=#b85450;strokeWidth=2;" parent="1" edge="1">
          <mxGeometry width="50" height="50" relative="1" as="geometry">
            <mxPoint x="80" y="320" as="sourcePoint" />
            <mxPoint x="320" y="320" as="targetPoint" />
            <Array as="points">
              <mxPoint x="80" y="260" />
              <mxPoint x="160" y="260" />
              <mxPoint x="160" y="380" />
              <mxPoint x="240" y="380" />
              <mxPoint x="240" y="260" />
              <mxPoint x="320" y="260" />
            </Array>
          </mxGeometry>
        </mxCell>
        <mxCell id="a2_H5RpbEo5zHHFtTsIT-10" value="" style="endArrow=none;html=1;rounded=0;" parent="1" edge="1">
          <mxGeometry width="50" height="50" relative="1" as="geometry">
            <mxPoint x="70" y="380" as="sourcePoint" />
            <mxPoint x="90" y="380" as="targetPoint" />
          </mxGeometry>
        </mxCell>
        <mxCell id="a2_H5RpbEo5zHHFtTsIT-11" value="" style="endArrow=none;html=1;rounded=0;" parent="1" edge="1">
          <mxGeometry width="50" height="50" relative="1" as="geometry">
            <mxPoint x="70" y="350" as="sourcePoint" />
            <mxPoint x="90" y="350" as="targetPoint" />
          </mxGeometry>
        </mxCell>
        <mxCell id="a2_H5RpbEo5zHHFtTsIT-12" value="" style="endArrow=none;html=1;rounded=0;" parent="1" edge="1">
          <mxGeometry width="50" height="50" relative="1" as="geometry">
            <mxPoint x="70" y="290" as="sourcePoint" />
            <mxPoint x="90" y="290" as="targetPoint" />
          </mxGeometry>
        </mxCell>
        <mxCell id="a2_H5RpbEo5zHHFtTsIT-13" value="$$U_d$$" style="rounded=0;whiteSpace=wrap;html=1;fillColor=none;strokeColor=none;" parent="1" vertex="1">
          <mxGeometry x="30" y="250" width="30" height="20" as="geometry" />
        </mxCell>
        <mxCell id="a2_H5RpbEo5zHHFtTsIT-14" value="$$-U_d$$" style="rounded=0;whiteSpace=wrap;html=1;fillColor=none;strokeColor=none;" parent="1" vertex="1">
          <mxGeometry x="30" y="370" width="30" height="20" as="geometry" />
        </mxCell>
        <mxCell id="a2_H5RpbEo5zHHFtTsIT-15" value="$$\frac{U_d}{2}$$" style="rounded=0;whiteSpace=wrap;html=1;fillColor=none;strokeColor=none;" parent="1" vertex="1">
          <mxGeometry x="30" y="280" width="30" height="20" as="geometry" />
        </mxCell>
        <mxCell id="a2_H5RpbEo5zHHFtTsIT-16" value="$$-\frac{U_d}{2}$$" style="rounded=0;whiteSpace=wrap;html=1;fillColor=none;strokeColor=none;" parent="1" vertex="1">
          <mxGeometry x="30" y="340" width="30" height="20" as="geometry" />
        </mxCell>
        <mxCell id="a2_H5RpbEo5zHHFtTsIT-17" value="" style="endArrow=classic;html=1;rounded=0;" parent="1" edge="1">
          <mxGeometry width="50" height="50" relative="1" as="geometry">
            <mxPoint x="80" y="600" as="sourcePoint" />
            <mxPoint x="80" y="440" as="targetPoint" />
          </mxGeometry>
        </mxCell>
        <mxCell id="a2_H5RpbEo5zHHFtTsIT-18" value="" style="endArrow=classic;html=1;rounded=0;" parent="1" edge="1">
          <mxGeometry width="50" height="50" relative="1" as="geometry">
            <mxPoint x="60" y="520" as="sourcePoint" />
            <mxPoint x="360" y="520" as="targetPoint" />
          </mxGeometry>
        </mxCell>
        <mxCell id="a2_H5RpbEo5zHHFtTsIT-19" value="" style="endArrow=none;html=1;rounded=0;" parent="1" edge="1">
          <mxGeometry width="50" height="50" relative="1" as="geometry">
            <mxPoint x="70" y="460" as="sourcePoint" />
            <mxPoint x="90" y="460" as="targetPoint" />
          </mxGeometry>
        </mxCell>
        <mxCell id="a2_H5RpbEo5zHHFtTsIT-20" value="" style="endArrow=none;html=1;rounded=0;fillColor=#f8cecc;strokeColor=#b85450;strokeWidth=2;" parent="1" edge="1">
          <mxGeometry width="50" height="50" relative="1" as="geometry">
            <mxPoint x="80" y="520" as="sourcePoint" />
            <mxPoint x="240" y="500" as="targetPoint" />
            <Array as="points">
              <mxPoint x="80" y="500" />
              <mxPoint x="110" y="500" />
              <mxPoint x="110" y="470" />
              <mxPoint x="130" y="470" />
              <mxPoint x="130" y="500" />
              <mxPoint x="160" y="500" />
              <mxPoint x="160" y="540" />
              <mxPoint x="190" y="540" />
              <mxPoint x="190" y="570" />
              <mxPoint x="210" y="570" />
              <mxPoint x="210" y="540" />
              <mxPoint x="240" y="540" />
            </Array>
          </mxGeometry>
        </mxCell>
        <mxCell id="a2_H5RpbEo5zHHFtTsIT-21" value="" style="endArrow=none;html=1;rounded=0;" parent="1" edge="1">
          <mxGeometry width="50" height="50" relative="1" as="geometry">
            <mxPoint x="70" y="580" as="sourcePoint" />
            <mxPoint x="90" y="580" as="targetPoint" />
          </mxGeometry>
        </mxCell>
        <mxCell id="a2_H5RpbEo5zHHFtTsIT-22" value="" style="endArrow=none;html=1;rounded=0;" parent="1" edge="1">
          <mxGeometry width="50" height="50" relative="1" as="geometry">
            <mxPoint x="70" y="550" as="sourcePoint" />
            <mxPoint x="90" y="550" as="targetPoint" />
          </mxGeometry>
        </mxCell>
        <mxCell id="a2_H5RpbEo5zHHFtTsIT-23" value="" style="endArrow=none;html=1;rounded=0;" parent="1" edge="1">
          <mxGeometry width="50" height="50" relative="1" as="geometry">
            <mxPoint x="70" y="490" as="sourcePoint" />
            <mxPoint x="90" y="490" as="targetPoint" />
          </mxGeometry>
        </mxCell>
        <mxCell id="a2_H5RpbEo5zHHFtTsIT-24" value="$$U_d$$" style="rounded=0;whiteSpace=wrap;html=1;fillColor=none;strokeColor=none;" parent="1" vertex="1">
          <mxGeometry x="30" y="450" width="30" height="20" as="geometry" />
        </mxCell>
        <mxCell id="a2_H5RpbEo5zHHFtTsIT-25" value="$$-U_d$$" style="rounded=0;whiteSpace=wrap;html=1;fillColor=none;strokeColor=none;" parent="1" vertex="1">
          <mxGeometry x="30" y="570" width="30" height="20" as="geometry" />
        </mxCell>
        <mxCell id="a2_H5RpbEo5zHHFtTsIT-26" value="$$\frac{U_d}{3}$$" style="rounded=0;whiteSpace=wrap;html=1;fillColor=none;strokeColor=none;" parent="1" vertex="1">
          <mxGeometry x="290" y="490" width="30" height="20" as="geometry" />
        </mxCell>
        <mxCell id="a2_H5RpbEo5zHHFtTsIT-27" value="$$-\frac{U_d}{2}$$" style="rounded=0;whiteSpace=wrap;html=1;fillColor=none;strokeColor=none;" parent="1" vertex="1">
          <mxGeometry x="30" y="540" width="30" height="20" as="geometry" />
        </mxCell>
        <mxCell id="a2_H5RpbEo5zHHFtTsIT-28" value="$$\frac{U_d}{2}$$" style="rounded=0;whiteSpace=wrap;html=1;fillColor=none;strokeColor=none;" parent="1" vertex="1">
          <mxGeometry x="40" y="490" width="30" height="20" as="geometry" />
        </mxCell>
        <mxCell id="a2_H5RpbEo5zHHFtTsIT-29" value="$$\frac{2\cdot U_d}{3}$$" style="rounded=0;whiteSpace=wrap;html=1;fillColor=none;strokeColor=none;" parent="1" vertex="1">
          <mxGeometry x="290" y="460" width="30" height="20" as="geometry" />
        </mxCell>
        <mxCell id="a2_H5RpbEo5zHHFtTsIT-30" value="$$-\frac{U_d}{3}$$" style="rounded=0;whiteSpace=wrap;html=1;fillColor=none;strokeColor=none;" parent="1" vertex="1">
          <mxGeometry x="290" y="530" width="30" height="20" as="geometry" />
        </mxCell>
        <mxCell id="a2_H5RpbEo5zHHFtTsIT-31" value="$$-\frac{2\cdot U_d}{3}$$" style="rounded=0;whiteSpace=wrap;html=1;fillColor=none;strokeColor=none;" parent="1" vertex="1">
          <mxGeometry x="290" y="565" width="30" height="20" as="geometry" />
        </mxCell>
        <mxCell id="a2_H5RpbEo5zHHFtTsIT-32" value="" style="endArrow=classic;html=1;rounded=0;" parent="1" edge="1">
          <mxGeometry width="50" height="50" relative="1" as="geometry">
            <mxPoint x="520" y="410" as="sourcePoint" />
            <mxPoint x="520" y="250" as="targetPoint" />
          </mxGeometry>
        </mxCell>
        <mxCell id="a2_H5RpbEo5zHHFtTsIT-33" value="" style="endArrow=classic;html=1;rounded=0;" parent="1" edge="1">
          <mxGeometry width="50" height="50" relative="1" as="geometry">
            <mxPoint x="500" y="330" as="sourcePoint" />
            <mxPoint x="800" y="330" as="targetPoint" />
          </mxGeometry>
        </mxCell>
        <mxCell id="a2_H5RpbEo5zHHFtTsIT-34" value="" style="endArrow=none;html=1;rounded=0;" parent="1" edge="1">
          <mxGeometry width="50" height="50" relative="1" as="geometry">
            <mxPoint x="510" y="270" as="sourcePoint" />
            <mxPoint x="530" y="270" as="targetPoint" />
          </mxGeometry>
        </mxCell>
        <mxCell id="a2_H5RpbEo5zHHFtTsIT-35" value="" style="endArrow=none;html=1;rounded=0;fillColor=#f8cecc;strokeColor=#b85450;strokeWidth=2;" parent="1" edge="1">
          <mxGeometry width="50" height="50" relative="1" as="geometry">
            <mxPoint x="520" y="330" as="sourcePoint" />
            <mxPoint x="760" y="390" as="targetPoint" />
            <Array as="points">
              <mxPoint x="520" y="270" />
              <mxPoint x="550" y="270" />
              <mxPoint x="550" y="330" />
              <mxPoint x="570" y="330" />
              <mxPoint x="570" y="390" />
              <mxPoint x="630" y="390" />
              <mxPoint x="630" y="330" />
              <mxPoint x="650" y="330" />
              <mxPoint x="650" y="270" />
              <mxPoint x="710" y="270" />
              <mxPoint x="710" y="330" />
              <mxPoint x="730" y="330" />
              <mxPoint x="730" y="390" />
            </Array>
          </mxGeometry>
        </mxCell>
        <mxCell id="a2_H5RpbEo5zHHFtTsIT-36" value="" style="endArrow=none;html=1;rounded=0;" parent="1" edge="1">
          <mxGeometry width="50" height="50" relative="1" as="geometry">
            <mxPoint x="510" y="390" as="sourcePoint" />
            <mxPoint x="530" y="390" as="targetPoint" />
          </mxGeometry>
        </mxCell>
        <mxCell id="a2_H5RpbEo5zHHFtTsIT-37" value="" style="endArrow=none;html=1;rounded=0;" parent="1" edge="1">
          <mxGeometry width="50" height="50" relative="1" as="geometry">
            <mxPoint x="510" y="360" as="sourcePoint" />
            <mxPoint x="530" y="360" as="targetPoint" />
          </mxGeometry>
        </mxCell>
        <mxCell id="a2_H5RpbEo5zHHFtTsIT-38" value="" style="endArrow=none;html=1;rounded=0;" parent="1" edge="1">
          <mxGeometry width="50" height="50" relative="1" as="geometry">
            <mxPoint x="510" y="300" as="sourcePoint" />
            <mxPoint x="530" y="300" as="targetPoint" />
          </mxGeometry>
        </mxCell>
        <mxCell id="a2_H5RpbEo5zHHFtTsIT-39" value="$$U_d$$" style="rounded=0;whiteSpace=wrap;html=1;fillColor=none;strokeColor=none;" parent="1" vertex="1">
          <mxGeometry x="470" y="260" width="30" height="20" as="geometry" />
        </mxCell>
        <mxCell id="a2_H5RpbEo5zHHFtTsIT-40" value="$$-U_d$$" style="rounded=0;whiteSpace=wrap;html=1;fillColor=none;strokeColor=none;" parent="1" vertex="1">
          <mxGeometry x="470" y="380" width="30" height="20" as="geometry" />
        </mxCell>
        <mxCell id="a2_H5RpbEo5zHHFtTsIT-41" value="$$\frac{U_d}{2}$$" style="rounded=0;whiteSpace=wrap;html=1;fillColor=none;strokeColor=none;" parent="1" vertex="1">
          <mxGeometry x="470" y="290" width="30" height="20" as="geometry" />
        </mxCell>
        <mxCell id="a2_H5RpbEo5zHHFtTsIT-42" value="$$-\frac{U_d}{2}$$" style="rounded=0;whiteSpace=wrap;html=1;fillColor=none;strokeColor=none;" parent="1" vertex="1">
          <mxGeometry x="470" y="350" width="30" height="20" as="geometry" />
        </mxCell>
        <mxCell id="a2_H5RpbEo5zHHFtTsIT-44" value="" style="endArrow=classic;html=1;rounded=0;" parent="1" edge="1">
          <mxGeometry width="50" height="50" relative="1" as="geometry">
            <mxPoint x="500" y="520" as="sourcePoint" />
            <mxPoint x="800" y="520" as="targetPoint" />
          </mxGeometry>
        </mxCell>
        <mxCell id="a2_H5RpbEo5zHHFtTsIT-45" value="" style="endArrow=none;html=1;rounded=0;" parent="1" edge="1">
          <mxGeometry width="50" height="50" relative="1" as="geometry">
            <mxPoint x="510" y="460" as="sourcePoint" />
            <mxPoint x="530" y="460" as="targetPoint" />
          </mxGeometry>
        </mxCell>
        <mxCell id="a2_H5RpbEo5zHHFtTsIT-46" value="" style="endArrow=none;html=1;rounded=0;fillColor=#f8cecc;strokeColor=#b85450;strokeWidth=2;" parent="1" edge="1">
          <mxGeometry width="50" height="50" relative="1" as="geometry">
            <mxPoint x="520" y="520" as="sourcePoint" />
            <mxPoint x="730" y="580" as="targetPoint" />
            <Array as="points">
              <mxPoint x="520" y="470" />
              <mxPoint x="540" y="470" />
              <mxPoint x="540" y="480" />
              <mxPoint x="550" y="480" />
              <mxPoint x="550" y="500" />
              <mxPoint x="560" y="500" />
              <mxPoint x="560" y="520" />
              <mxPoint x="570" y="520" />
              <mxPoint x="570" y="540" />
              <mxPoint x="580" y="540" />
              <mxPoint x="580" y="560" />
              <mxPoint x="590" y="560" />
              <mxPoint x="590" y="570" />
              <mxPoint x="620" y="570" />
              <mxPoint x="620" y="560" />
              <mxPoint x="630" y="560" />
              <mxPoint x="630" y="540" />
              <mxPoint x="640" y="540" />
              <mxPoint x="640" y="520" />
              <mxPoint x="650" y="520" />
              <mxPoint x="650" y="500" />
              <mxPoint x="660" y="500" />
              <mxPoint x="660" y="480" />
              <mxPoint x="670" y="480" />
              <mxPoint x="670" y="470" />
              <mxPoint x="700" y="470" />
              <mxPoint x="700" y="480" />
              <mxPoint x="710" y="480" />
              <mxPoint x="710" y="500" />
              <mxPoint x="720" y="500" />
              <mxPoint x="720" y="520" />
              <mxPoint x="730" y="520" />
            </Array>
          </mxGeometry>
        </mxCell>
        <mxCell id="a2_H5RpbEo5zHHFtTsIT-47" value="" style="endArrow=none;html=1;rounded=0;" parent="1" edge="1">
          <mxGeometry width="50" height="50" relative="1" as="geometry">
            <mxPoint x="510" y="580" as="sourcePoint" />
            <mxPoint x="530" y="580" as="targetPoint" />
          </mxGeometry>
        </mxCell>
        <mxCell id="a2_H5RpbEo5zHHFtTsIT-48" value="" style="endArrow=none;html=1;rounded=0;" parent="1" edge="1">
          <mxGeometry width="50" height="50" relative="1" as="geometry">
            <mxPoint x="510" y="550" as="sourcePoint" />
            <mxPoint x="530" y="550" as="targetPoint" />
          </mxGeometry>
        </mxCell>
        <mxCell id="a2_H5RpbEo5zHHFtTsIT-49" value="" style="endArrow=none;html=1;rounded=0;" parent="1" edge="1">
          <mxGeometry width="50" height="50" relative="1" as="geometry">
            <mxPoint x="510" y="490" as="sourcePoint" />
            <mxPoint x="530" y="490" as="targetPoint" />
          </mxGeometry>
        </mxCell>
        <mxCell id="a2_H5RpbEo5zHHFtTsIT-50" value="$$U_d$$" style="rounded=0;whiteSpace=wrap;html=1;fillColor=none;strokeColor=none;" parent="1" vertex="1">
          <mxGeometry x="470" y="450" width="30" height="20" as="geometry" />
        </mxCell>
        <mxCell id="a2_H5RpbEo5zHHFtTsIT-51" value="$$-U_d$$" style="rounded=0;whiteSpace=wrap;html=1;fillColor=none;strokeColor=none;" parent="1" vertex="1">
          <mxGeometry x="470" y="570" width="30" height="20" as="geometry" />
        </mxCell>
        <mxCell id="a2_H5RpbEo5zHHFtTsIT-52" value="$$\frac{U_d}{2}$$" style="rounded=0;whiteSpace=wrap;html=1;fillColor=none;strokeColor=none;" parent="1" vertex="1">
          <mxGeometry x="470" y="480" width="30" height="20" as="geometry" />
        </mxCell>
        <mxCell id="a2_H5RpbEo5zHHFtTsIT-53" value="Abbildungen nicht MaßStabsgetreu!!!" style="rounded=0;whiteSpace=wrap;html=1;fillColor=#f8cecc;strokeColor=#b85450;" parent="1" vertex="1">
          <mxGeometry x="330" y="200" width="130" height="40" as="geometry" />
        </mxCell>
        <mxCell id="a2_H5RpbEo5zHHFtTsIT-55" value="$$-\frac{U_d}{2}$$" style="rounded=0;whiteSpace=wrap;html=1;fillColor=none;strokeColor=none;" parent="1" vertex="1">
          <mxGeometry x="480" y="555" width="30" height="20" as="geometry" />
        </mxCell>
        <mxCell id="a2_H5RpbEo5zHHFtTsIT-56" value="" style="endArrow=classic;html=1;rounded=0;" parent="1" edge="1">
          <mxGeometry width="50" height="50" relative="1" as="geometry">
            <mxPoint x="520" y="600" as="sourcePoint" />
            <mxPoint x="520" y="440" as="targetPoint" />
          </mxGeometry>
        </mxCell>
        <mxCell id="MXMSB1ciDBsaV3FGJzTG-1" value="&lt;h1&gt;Ansteuerung Dreipunkt Wechselrichter&lt;/h1&gt;&lt;p&gt;&lt;/p&gt;&lt;ul&gt;&lt;li&gt;K-1 carrier-Signale --&amp;gt; 3-1 = 2 --&amp;gt; T_u und T_l&amp;nbsp;&lt;/li&gt;&lt;li&gt;Tc = ?&amp;nbsp;&lt;/li&gt;&lt;/ul&gt;&lt;p&gt;&lt;/p&gt;&lt;p&gt;&lt;br&gt;&lt;/p&gt;" style="text;html=1;strokeColor=none;fillColor=none;spacing=5;spacingTop=-20;whiteSpace=wrap;overflow=hidden;rounded=0;" vertex="1" parent="1">
          <mxGeometry x="80" y="640" width="240" height="190" as="geometry" />
        </mxCell>
      </root>
    </mxGraphModel>
  </diagram>
</mxfile>
